<svg data-v-0dd9719b="" version="1.0" xmlns="http://www.w3.org/2000/svg" xmlns:xlink="http://www.w3.org/1999/xlink" width="100%" height="100%" viewBox="0 0 340.000000 250.000000" preserveAspectRatio="xMidYMid meet" color-interpolation-filters="sRGB" style="margin: auto;"> <rect data-v-0dd9719b="" x="0" y="0" width="100%" height="100%" fill="#fff" fill-opacity="1" class="background"></rect> <rect data-v-0dd9719b="" x="0" y="0" width="100%" height="100%" fill="url(#watermark)" fill-opacity="1" class="watermarklayer"></rect> <g data-v-0dd9719b="" fill="#333333" class="icon-text-wrapper icon-svg-group iconsvg" transform="translate(48.23500061035156,96.10375213623047)"><g class="iconsvg-imagesvg" transform="translate(0,0.690155029296875)"><g><rect fill="#333333" fill-opacity="0" stroke-width="2" x="0" y="0" width="60" height="56.4121850319669" class="image-rect"></rect> <svg x="0" y="0" width="60" height="56.4121850319669" filtersec="colorsb2256934935" class="image-svg-svg primary" style="overflow: visible;"><svg xmlns="http://www.w3.org/2000/svg" viewBox="0 0 106.36000061035156 100"><g><g><path fill="#02035e" d="M31.46 8.31L0 0v100l31.46-8.31 11.97-3.17V11.48L31.46 8.31z"></path><path fill="#00b0d8" opacity=".8" d="M62.93 8.31L31.46 0v100l31.47-8.31 11.96-3.17V11.48L62.93 8.31z"></path><path fill="#00b0d8" opacity=".5" d="M62.93 0v100l43.43-11.48V11.48L62.93 0z"></path></g></g></svg></svg> <!----></g></g> <g transform="translate(67,0)"><g data-gra="path-name" fill-rule="" class="tp-name iconsvg-namesvg" transform="translate(0,0)"><g transform="scale(1)"><g><path d="M14.26-12.82L37.98-12.82 37.98 1.71 42.25 1.71 42.25 3.24 8.73 3.24 8.73 1.71 14.26 1.71 14.26-12.82ZM15.84-34.06L36.41-34.06 36.41-18.54 15.84-18.54 15.84-34.06ZM17.32-19.98L34.96-19.98 34.96-25.7 17.32-25.7 17.32-19.98ZM17.32-32.63L17.32-27.09 34.96-27.09 34.96-32.63 17.32-32.63ZM15.71-11.29L15.71 1.71 21.78 1.71 21.78-11.29 15.71-11.29ZM36.54-11.29L30.51-11.29 30.51 1.71 36.54 1.71 36.54-11.29ZM23.22-11.29L23.22 1.71 29.07 1.71 29.07-11.29 23.22-11.29ZM4.59 4.37L3.1 3.78Q3.73 2.29 4.46 0.2 5.17-1.89 5.85-4.16 6.52-6.43 7.11-8.66 7.69-10.89 8.1-12.64L8.1-12.64 9.58-12.24Q9.18-10.39 8.57-8.14 7.96-5.89 7.29-3.65 6.61-1.4 5.92 0.72 5.22 2.83 4.59 4.37L4.59 4.37ZM1.17-24.07L2.07-25.33Q2.83-24.79 3.98-23.87 5.13-22.95 6.34-21.91 7.56-20.88 8.64-19.89 9.72-18.9 10.39-18.22L10.39-18.22 9.36-16.96Q8.55-17.82 7.38-18.9 6.21-19.98 5.02-20.99 3.82-22 2.79-22.84 1.75-23.67 1.17-24.07L1.17-24.07ZM3.73-34.06L4.68-35.28Q5.44-34.74 6.43-33.93 7.42-33.12 8.64-32.09L8.64-32.09Q11.16-29.92 12.38-28.57L12.38-28.57 11.34-27.36Q10.71-28.04 9.81-28.89 8.91-29.74 7.69-30.82L7.69-30.82Q6.48-31.9 5.49-32.71 4.5-33.52 3.73-34.06L3.73-34.06ZM49.19 5.67L47.84 4.63Q53.46-1.08 55.13-5.98L55.13-5.98Q56.79-10.98 56.79-22.5L56.79-22.5 56.79-36.27 58.32-36.27 58.32-22.45Q58.32-10.75 56.61-5.35L56.61-5.35Q54.95-0.14 49.19 5.67L49.19 5.67ZM81.99-36.27L83.56-36.27 83.56 4.86 81.99 4.86 81.99-36.27ZM69.16-35.05L70.74-35.05 70.74 4.27 69.16 4.27 69.16-35.05ZM48.55-11.47L47.16-12.15Q47.79-13.37 48.47-14.94 49.14-16.52 49.75-18.25 50.35-19.98 50.87-21.69 51.39-23.4 51.75-24.84L51.75-24.84 53.28-24.43Q52.88-22.9 52.31-21.15 51.75-19.39 51.12-17.68 50.49-15.97 49.81-14.35 49.14-12.73 48.55-11.47L48.55-11.47ZM60.21-24.07L61.52-24.79Q62.14-23.76 62.93-22.25 63.72-20.75 64.48-19.13 65.25-17.5 65.9-15.91 66.56-14.31 66.91-13.18L66.91-13.18 65.47-12.55Q65.11-13.68 64.44-15.28 63.77-16.88 63.02-18.52 62.28-20.16 61.52-21.64 60.75-23.13 60.21-24.07L60.21-24.07ZM73.22-24.07L74.52-24.79Q75.15-23.76 75.87-22.36 76.59-20.97 77.44-19.13L77.44-19.13Q78.34-17.28 78.95-15.82 79.56-14.35 79.92-13.18L79.92-13.18 78.53-12.51Q77.76-14.89 76.09-18.4L76.09-18.4Q75.24-20.25 74.54-21.64 73.84-23.04 73.22-24.07L73.22-24.07ZM96.66-11.56L111.38-11.56 111.38-20.02 94.81-20.02 94.81-21.6 130.09-21.6 130.09-20.02 113-20.02 113-11.56 128.25-11.56 128.25-9.99 113-9.99 113 0.94 131.53 0.94 131.53 2.56 93.38 2.56 93.38 0.94 111.38 0.94 111.38-9.99 96.66-9.99 96.66-11.56ZM109.66-36.36L111.11-37.17Q111.42-36.67 111.85-35.89 112.28-35.1 112.72-34.22 113.17-33.34 113.6-32.49 114.03-31.63 114.3-30.96L114.3-30.96 130.05-30.96 130.05-23.54 128.38-23.54 128.38-29.43 96.53-29.43 96.53-23.54 94.95-23.54 94.95-30.96 112.55-30.96Q112.28-31.54 111.89-32.33 111.51-33.12 111.11-33.88 110.7-34.65 110.32-35.3 109.94-35.95 109.66-36.36L109.66-36.36ZM118.39-7.47L119.56-8.5Q120.06-8.01 120.87-7.11 121.68-6.21 122.53-5.2 123.39-4.18 124.13-3.22 124.88-2.25 125.28-1.67L125.28-1.67 124.06-0.67Q123.53-1.4 122.83-2.29 122.13-3.19 121.36-4.12 120.6-5.04 119.83-5.92 119.07-6.79 118.39-7.47L118.39-7.47ZM149.09-10.66L149.09-12.2Q151.47-15.79 153.85-20.25L153.85-20.25 154.44-21.33 146.12-21.33 146.12-22.81 155.2-22.81Q155.97-24.3 156.62-25.72 157.28-27.13 157.81-28.44L157.81-28.44 159.3-27.99Q158.76-26.77 158.18-25.47 157.59-24.16 156.87-22.81L156.87-22.81 175.81-22.81 175.81-21.33 156.15-21.33 155.43-20.02Q153.04-15.71 150.84-12.2L150.84-12.2 161.59-12.2 161.59-19.04 163.13-19.04 163.13-12.2 174.82-12.2 174.82-10.66 163.13-10.66 163.13-4.27 177.7-4.27 177.7-2.7 163.13-2.7 163.13 5.35 161.59 5.35 161.59-2.7 145.22-2.7 145.22-4.27 161.59-4.27 161.59-10.66 149.09-10.66ZM157.23-36.05L158.67-36.72Q158.94-36.23 159.32-35.5 159.7-34.78 160.09-33.98 160.47-33.16 160.85-32.33 161.24-31.5 161.5-30.82L161.5-30.82 177.48-30.82 177.48-29.34 143.82-29.34 143.82-17.77Q143.82-8.96 142.69-4.46L142.69-4.46Q142.16-2.16 141.12 0.34 140.09 2.83 138.38 5.67L138.38 5.67 136.94 4.86Q138.65 2.07 139.66-0.36 140.67-2.79 141.21-5L141.21-5Q142.29-9.36 142.29-17.64L142.29-17.64 142.29-30.82 159.84-30.82Q159.53-31.5 159.12-32.31 158.72-33.12 158.33-33.88 157.95-34.65 157.66-35.23 157.37-35.82 157.23-36.05L157.23-36.05Z" transform="translate(-1.1700000762939453, 37.16999816894531)"></path></g> <!----> <!----> <!----> <!----> <!----> <!----> <!----></g></g> <g data-gra="path-slogan" fill-rule="" class="tp-slogan iconsvg-slogansvg" fill="#333333" transform="translate(5,48.839996337890625)"><rect x="0" height="1" y="3.9750003814697266" width="27.345001220703125"></rect> <rect height="1" y="3.9750003814697266" width="27.345001220703125" x="139.18499755859375"></rect> <g transform="translate(30.345001220703125,0)"><g transform="scale(1)"><path d="M5.67-7.13L5.63-7.13L3.66 0L2.44 0L0.19-8.58L1.41-8.58L3.05-1.59L3.09-1.59L5.02-8.58L6.28-8.58L8.20-1.59L8.25-1.59L9.84-8.58L11.11-8.58L8.86 0L7.64 0L5.67-7.13ZM13.50-1.03L18.66-1.03L18.66 0L12.33 0L12.33-8.58L18.56-8.58L18.56-7.59L13.50-7.59L13.50-4.92L18.19-4.92L18.19-3.89L13.50-3.89L13.50-1.03ZM21.56-8.58L25.88-1.64L25.88-8.58L27-8.58L27 0L25.69 0L21.33-6.94L21.28-6.94L21.28 0L20.16 0L20.16-8.58L21.56-8.58ZM29.63-1.03L34.92-1.03L34.92 0L28.17 0L28.17-0.94L33.42-7.59L28.55-7.59L28.55-8.58L34.92-8.58L34.92-7.59L29.63-1.03ZM37.22-5.06L41.72-5.06L41.72-8.58L42.89-8.58L42.89 0L41.72 0L41.72-3.98L37.22-3.98L37.22 0L36.05 0L36.05-8.58L37.22-8.58L37.22-5.06ZM51.47-4.27L51.47-4.27Q51.28-7.64 48.47-7.83L48.47-7.83Q45.61-7.69 45.47-4.27L45.47-4.27Q45.61-0.94 48.47-0.80L48.47-0.80Q51.28-0.98 51.47-4.27ZM52.64-4.27L52.64-4.27Q52.36 0 48.47 0.14L48.47 0.14Q44.53 0 44.25-4.27L44.25-4.27Q44.48-8.72 48.47-8.81L48.47-8.81Q52.36-8.67 52.64-4.27ZM59.67-3.19L59.67-8.58L60.84-8.58L60.84-3.05Q60.70 0.05 57.33 0.14L57.33 0.14Q54.19 0.05 54.05-2.86L54.05-2.86L54.05-8.58L55.22-8.58L55.22-3.19Q55.27-0.84 57.38-0.80L57.38-0.80Q59.67-0.84 59.67-3.19L59.67-3.19ZM69.19-7.64L67.13-7.64L67.13-4.97L69.19-4.97Q71.02-4.92 70.97-6.38L70.97-6.38Q70.97-7.64 69.19-7.64L69.19-7.64ZM69.66 0L65.95 0L65.95-8.58L69.75-8.58Q72.05-8.48 72.14-6.42L72.14-6.42Q72.14-5.16 71.02-4.64L71.02-4.64Q72.61-4.08 72.61-2.53L72.61-2.53Q72.47-0.09 69.66 0L69.66 0ZM69.38-3.98L67.13-3.98L67.13-0.98L69.61-0.98Q71.39-1.03 71.44-2.53L71.44-2.53Q71.44-3.98 69.38-3.98L69.38-3.98ZM79.59 0L78.75-2.48L75.28-2.48L74.39 0L73.22 0L76.45-8.58L77.77-8.58L80.86 0L79.59 0ZM77.02-7.31L75.66-3.52L78.33-3.52L77.06-7.31L77.02-7.31ZM88.69-4.27L88.69-4.27Q88.50-7.64 85.69-7.83L85.69-7.83Q82.83-7.69 82.69-4.27L82.69-4.27Q82.83-0.94 85.69-0.80L85.69-0.80Q88.50-0.98 88.69-4.27ZM89.86-4.27L89.86-4.27Q89.58 0 85.69 0.14L85.69 0.14Q81.75 0 81.47-4.27L81.47-4.27Q81.70-8.72 85.69-8.81L85.69-8.81Q89.58-8.67 89.86-4.27ZM93.75-4.31L92.39-3.05L92.39 0L91.22 0L91.22-8.58L92.39-8.58L92.39-4.41L96.56-8.58L98.20-8.58L94.59-5.11L98.30 0L96.75 0L93.75-4.31ZM104.86-3.19L104.86-8.58L106.03-8.58L106.03-3.05Q105.89 0.05 102.52 0.14L102.52 0.14Q99.38 0.05 99.23-2.86L99.23-2.86L99.23-8.58L100.41-8.58L100.41-3.19Q100.45-0.84 102.56-0.80L102.56-0.80Q104.86-0.84 104.86-3.19L104.86-3.19Z" transform="translate(-0.1875, 8.8125)"></path></g></g></g></g></g><defs v-gra="od"></defs></svg>